<svg xmlns="http://www.w3.org/2000/svg" viewBox="0 0 292.56 330.3"><defs><style>.cls-1,.cls-3,.cls-4{fill:#c49a62;}.cls-2{fill:none;stroke:#c49a62;stroke-miterlimit:10;stroke-width:9px;}.cls-3{font-size:18.91px;}.cls-3,.cls-4{font-family:Poppins-Bold, Poppins;font-weight:700;}.cls-4{font-size:33.37px;}</style></defs><g id="Capa_2" data-name="Capa 2"><g id="PRINT"><g id="CUSTOM-Group"><path class="cls-1" d="M129.25,101a5.92,5.92,0,0,1,5.91-5.91h35.45a17.73,17.73,0,1,0,0-35.45H158.79a5.91,5.91,0,0,1-5.9-5.91V47.78H141.07v5.91a17.74,17.74,0,0,0,17.72,17.72h11.82a5.91,5.91,0,0,1,0,11.82H135.16A17.75,17.75,0,0,0,117.43,101v5.91h11.82Zm70.91,74.45a23.64,23.64,0,0,0,0-47.27H200c.08-1.88.13-3.85.13-5.91v-5.91H82v5.91c0,27.91,8.17,38.42,14.74,46.87,4.11,5.28,7.5,9.66,8.55,18.13H72.52v11.82H209.61V187.23H176.86a28.47,28.47,0,0,1,4-11.82ZM198.81,140h1.35a11.82,11.82,0,0,1,0,23.63H189.52C193.27,158.13,196.91,151.11,198.81,140Zm-22.72,21.88c-4.89,6.29-9.92,12.77-11.12,25.39H117.16c-1.19-12.62-6.23-19.1-11.11-25.39-5.5-7.07-11.16-14.36-12.11-33.7H188.2C187.25,147.48,181.58,154.77,176.09,161.84Z"/></g><path id="CUSTOM" class="cls-2" d="M268.77,102.07a126,126,0,0,0-245.52,0"/><path id="CUSTOM-2" data-name="CUSTOM" class="cls-2" d="M23.25,158.94a126,126,0,0,0,245.52,0"/><text class="cls-3" transform="translate(6.74 137.33)">EST</text><text class="cls-3" transform="translate(245.65 137.33)">2020</text><text class="cls-4" transform="translate(0 310.07)">THE COFFEE SHOP</text></g></g></svg>